<svg width="512" height="512" viewBox="0 0 512 512" fill="none" xmlns="http://www.w3.org/2000/svg">
    <defs>
        <linearGradient id="bg-light" x1="64" y1="56" x2="448" y2="456" gradientUnits="userSpaceOnUse">
            <stop offset="0" stop-color="#34D399" />
            <stop offset="1" stop-color="#047857" />
        </linearGradient>
        <linearGradient id="building-light" x1="0" y1="128" x2="0" y2="392" gradientUnits="userSpaceOnUse">
            <stop offset="0" stop-color="#FFFFFF" />
            <stop offset="1" stop-color="#ECFDF5" />
        </linearGradient>
        <linearGradient id="accent-light" x1="112" y1="408" x2="400" y2="408" gradientUnits="userSpaceOnUse">
            <stop offset="0" stop-color="#6EE7B7" />
            <stop offset="1" stop-color="#34D399" />
        </linearGradient>
    </defs>

    <rect x="40" y="40" width="432" height="432" rx="108" fill="url(#bg-light)" />

    <rect x="118" y="230" width="44" height="148" rx="14" fill="url(#building-light)" />
    <path d="M174 176L246 122L318 176V360H174V176Z" fill="url(#building-light)" />

    <g fill="#10B981">
        <rect x="196" y="200" width="22" height="26" rx="6" />
        <rect x="240" y="200" width="22" height="26" rx="6" />
        <rect x="196" y="248" width="22" height="26" rx="6" />
        <rect x="240" y="248" width="22" height="26" rx="6" />
        <rect x="215" y="306" width="36" height="54" rx="10" />
    </g>

    <path d="M336 192H401L430 221V366C430 377.046 421.046 386 410 386H336C324.954 386 316 377.046 316 366V212C316 200.954 324.954 192 336 192Z" fill="#FFFFFF" />
    <path d="M401 192V213C401 221.837 408.163 229 417 229H430L401 192Z" fill="#A7F3D0" />

    <text x="372" y="305" text-anchor="middle" font-size="98" font-weight="800" font-family="Segoe UI Symbol, Noto Sans, Arial Unicode MS, sans-serif" fill="#10B981">₹</text>
    <rect x="344" y="328" width="56" height="10" rx="5" fill="#10B981" />
    <rect x="344" y="348" width="72" height="10" rx="5" fill="#10B981" />

    <path d="M112 408C165 394 347 394 400 408" stroke="url(#accent-light)" stroke-width="14" stroke-linecap="round" />
</svg>