<svg width="32" height="32" viewBox="0 0 32 32" fill="none" xmlns="http://www.w3.org/2000/svg">
  <defs>
    <linearGradient id="fl-bg-light" x1="0" y1="0" x2="32" y2="32" gradientUnits="userSpaceOnUse">
      <stop offset="0%" stop-color="#34D399"/>
      <stop offset="100%" stop-color="#047857"/>
    </linearGradient>
    <linearGradient id="fl-building-dark" x1="0" y1="0" x2="32" y2="32" gradientUnits="userSpaceOnUse">
      <stop offset="0%" stop-color="#86EFAC"/>
      <stop offset="100%" stop-color="#14B8A6"/>
    </linearGradient>
    <style>
      .bg-dark, .shape-dark, .cutout-dark { display: none; }
      @media (prefers-color-scheme: dark) {
        .bg-light, .shape-light, .cutout-light { display: none; }
        .bg-dark, .shape-dark, .cutout-dark { display: inline; }
      }
    </style>
  </defs>
  <rect class="bg-light" width="32" height="32" fill="url(#fl-bg-light)"/>
  <rect class="bg-dark" width="32" height="32" fill="#000"/>

  <g transform="translate(4 4) scale(0.75)">
    <path class="shape-light" d="M2 30V9H9V4H23V9H30V30H2Z" fill="#fff"/>
    <path class="shape-dark" d="M2 30V9H9V4H23V9H30V30H2Z" fill="url(#fl-building-dark)"/>

    <rect class="cutout-light" x="11" y="8" width="2" height="3" rx="1" fill="#047857"/>
    <rect class="cutout-light" x="15" y="8" width="2" height="3" rx="1" fill="#047857"/>
    <rect class="cutout-light" x="19" y="8" width="2" height="3" rx="1" fill="#047857"/>
    <rect class="cutout-light" x="11" y="12" width="2" height="3" rx="1" fill="#047857"/>
    <rect class="cutout-light" x="15" y="12" width="2" height="3" rx="1" fill="#047857"/>
    <rect class="cutout-light" x="19" y="12" width="2" height="3" rx="1" fill="#047857"/>
    <rect class="cutout-light" x="11" y="16" width="2" height="3" rx="1" fill="#047857"/>
    <rect class="cutout-light" x="15" y="16" width="2" height="3" rx="1" fill="#047857"/>
    <rect class="cutout-light" x="19" y="16" width="2" height="3" rx="1" fill="#047857"/>
    <rect class="cutout-light" x="11" y="20" width="2" height="3" rx="1" fill="#047857"/>
    <rect class="cutout-light" x="15" y="20" width="2" height="3" rx="1" fill="#047857"/>
    <rect class="cutout-light" x="19" y="20" width="2" height="3" rx="1" fill="#047857"/>
    <rect class="cutout-light" x="4" y="11" width="2" height="3" rx="1" fill="#047857"/>
    <rect class="cutout-light" x="4" y="15" width="2" height="3" rx="1" fill="#047857"/>
    <rect class="cutout-light" x="4" y="19" width="2" height="3" rx="1" fill="#047857"/>
    <rect class="cutout-light" x="4" y="23" width="2" height="3" rx="1" fill="#047857"/>
    <rect class="cutout-light" x="26" y="11" width="2" height="3" rx="1" fill="#047857"/>
    <rect class="cutout-light" x="26" y="15" width="2" height="3" rx="1" fill="#047857"/>
    <rect class="cutout-light" x="26" y="19" width="2" height="3" rx="1" fill="#047857"/>
    <rect class="cutout-light" x="26" y="23" width="2" height="3" rx="1" fill="#047857"/>
    <rect class="cutout-light" x="14" y="24" width="4" height="6" rx="0.5" fill="#047857"/>

    <rect class="cutout-dark" x="11" y="8" width="2" height="3" rx="1" fill="#000"/>
    <rect class="cutout-dark" x="15" y="8" width="2" height="3" rx="1" fill="#000"/>
    <rect class="cutout-dark" x="19" y="8" width="2" height="3" rx="1" fill="#000"/>
    <rect class="cutout-dark" x="11" y="12" width="2" height="3" rx="1" fill="#000"/>
    <rect class="cutout-dark" x="15" y="12" width="2" height="3" rx="1" fill="#000"/>
    <rect class="cutout-dark" x="19" y="12" width="2" height="3" rx="1" fill="#000"/>
    <rect class="cutout-dark" x="11" y="16" width="2" height="3" rx="1" fill="#000"/>
    <rect class="cutout-dark" x="15" y="16" width="2" height="3" rx="1" fill="#000"/>
    <rect class="cutout-dark" x="19" y="16" width="2" height="3" rx="1" fill="#000"/>
    <rect class="cutout-dark" x="11" y="20" width="2" height="3" rx="1" fill="#000"/>
    <rect class="cutout-dark" x="15" y="20" width="2" height="3" rx="1" fill="#000"/>
    <rect class="cutout-dark" x="19" y="20" width="2" height="3" rx="1" fill="#000"/>
    <rect class="cutout-dark" x="4" y="11" width="2" height="3" rx="1" fill="#000"/>
    <rect class="cutout-dark" x="4" y="15" width="2" height="3" rx="1" fill="#000"/>
    <rect class="cutout-dark" x="4" y="19" width="2" height="3" rx="1" fill="#000"/>
    <rect class="cutout-dark" x="4" y="23" width="2" height="3" rx="1" fill="#000"/>
    <rect class="cutout-dark" x="26" y="11" width="2" height="3" rx="1" fill="#000"/>
    <rect class="cutout-dark" x="26" y="15" width="2" height="3" rx="1" fill="#000"/>
    <rect class="cutout-dark" x="26" y="19" width="2" height="3" rx="1" fill="#000"/>
    <rect class="cutout-dark" x="26" y="23" width="2" height="3" rx="1" fill="#000"/>
    <rect class="cutout-dark" x="14" y="24" width="4" height="6" rx="0.5" fill="#000"/>
  </g>
</svg>